<?xml version="1.0" encoding="utf-8"?>
<!-- Generator: Adobe Illustrator 21.1.0, SVG Export Plug-In . SVG Version: 6.00 Build 0)  -->
<svg version="1.1" id="Layer_1" xmlns="http://www.w3.org/2000/svg" xmlns:xlink="http://www.w3.org/1999/xlink" x="0px" y="0px"
	 viewBox="0 0 792 102.6" style="enable-background:new 0 0 792 102.6;" xml:space="preserve">
<style type="text/css">
	.st0{fill:url(#SVGID_1_);}
	.st1{fill:#FFFFFF;}
	.st2{fill:#939598;}
	.st3{fill:#FF8400;}
	.st4{fill:url(#SVGID_2_);}
</style>
<g>
	<linearGradient id="SVGID_1_" gradientUnits="userSpaceOnUse" x1="610.0997" y1="101.1704" x2="610.0997" y2="-8.778342e-02">
		<stop  offset="0" style="stop-color:#0097FF"/>
		<stop  offset="1" style="stop-color:#0A31E0"/>
	</linearGradient>
	<path class="st0" d="M779.8,0H440.4c-6.8,0-12.2,5.5-12.2,12.2v78.2c0,6.8,5.5,12.2,12.2,12.2h339.4c6.8,0,12.2-5.5,12.2-12.2V12.2
		C792,5.5,786.5,0,779.8,0z"/>
	<g>
		<path class="st1" d="M451.8,63.1h1.2c1.3,0,2.4,0.5,3.3,1.4c0.9,0.9,1.4,2,1.4,3.3c0,1.3-0.5,2.5-1.4,3.4c-0.9,0.9-2,1.3-3.3,1.3
			h-1.2c-1.3,0-2.4-0.5-3.3-1.4c-0.9-0.9-1.4-2-1.4-3.3c0-1.3,0.5-2.5,1.4-3.4C449.4,63.6,450.5,63.1,451.8,63.1z"/>
		<path class="st1" d="M480.4,41.5h15.8c0.7,0,1.2,0.1,1.5,0.4c0.3,0.3,0.5,0.6,0.5,1.1c0,0.4-0.2,0.8-0.5,1
			c-0.3,0.3-0.8,0.4-1.5,0.4h-15.8v19.3c0,1.7,0.7,3.1,2,4.2c1.3,1.1,3.3,1.7,5.9,1.7c2,0,4.1-0.3,6.4-0.9c2.3-0.6,4.1-1.2,5.3-2
			c0.5-0.3,0.8-0.4,1.1-0.4c0.4,0,0.7,0.1,1,0.4c0.3,0.3,0.4,0.6,0.4,1c0,0.3-0.1,0.7-0.4,1c-0.7,0.8-2.5,1.6-5.4,2.5
			c-2.8,0.9-5.6,1.3-8.2,1.3c-3.4,0-6.1-0.8-8.1-2.4c-2-1.6-3-3.7-3-6.4V44.4h-5.4c-0.7,0-1.2-0.1-1.5-0.4c-0.3-0.3-0.4-0.6-0.4-1.1
			c0-0.4,0.1-0.8,0.4-1c0.3-0.3,0.8-0.4,1.5-0.4h5.4v-8.6c0-0.7,0.1-1.2,0.4-1.5c0.3-0.3,0.6-0.4,1-0.4c0.4,0,0.8,0.1,1.1,0.4
			c0.3,0.3,0.4,0.8,0.4,1.5V41.5z"/>
		<path class="st1" d="M543.7,56.5c0,4.4-1.6,8.2-4.8,11.3c-3.2,3.1-7,4.7-11.5,4.7c-4.5,0-8.4-1.6-11.5-4.7
			c-3.2-3.1-4.7-6.9-4.7-11.3c0-4.4,1.6-8.2,4.7-11.4c3.2-3.1,7-4.7,11.5-4.7c4.5,0,8.3,1.6,11.5,4.7
			C542.1,48.3,543.7,52.1,543.7,56.5z M540.8,56.5c0-3.6-1.3-6.7-3.9-9.3c-2.6-2.6-5.7-3.8-9.4-3.8c-3.7,0-6.8,1.3-9.4,3.9
			s-3.9,5.7-3.9,9.3c0,3.6,1.3,6.7,3.9,9.3c2.6,2.6,5.7,3.9,9.4,3.9c3.7,0,6.8-1.3,9.4-3.9C539.5,63.3,540.8,60.2,540.8,56.5z"/>
		<path class="st1" d="M583.2,35v-2c0-0.7,0.1-1.2,0.4-1.5c0.3-0.3,0.6-0.4,1.1-0.4c0.4,0,0.8,0.1,1.1,0.4c0.3,0.3,0.4,0.8,0.4,1.5
			V41c0,0.7-0.1,1.2-0.4,1.5c-0.3,0.3-0.6,0.4-1.1,0.4c-0.4,0-0.7-0.1-1-0.4c-0.3-0.3-0.4-0.7-0.5-1.3c-0.1-1.9-1.2-3.7-3.1-5.2
			c-2.7-2.1-5.7-3.1-9.1-3.1c-2.2,0-4.3,0.5-6.3,1.5c-1.5,0.7-2.7,1.6-3.5,2.6c-1.5,1.8-2.7,3.8-3.6,6c-0.6,1.6-1,3.4-1,5.5v5.1
			c0,4.3,1.6,8.1,4.7,11.3c3.1,3.2,6.8,4.8,10.9,4.8c2.5,0,4.7-0.5,6.7-1.6c2-1.1,3.9-2.7,5.7-4.9c0.4-0.5,0.8-0.7,1.3-0.7
			c0.4,0,0.7,0.1,1,0.4c0.3,0.3,0.4,0.6,0.4,1c0,0.5-0.5,1.3-1.5,2.4c-1.9,2.1-4,3.7-6.4,4.8c-2.4,1.1-4.8,1.6-7.2,1.6
			c-2.1,0-4.2-0.4-6.4-1.2c-1.7-0.6-3-1.3-4.1-2.2c-1.1-0.8-2.4-2.2-4-4.2c-1.6-2-2.7-3.8-3.2-5.5c-0.6-1.7-0.9-3.5-0.9-5.5v-5.9
			c0-2.9,0.8-5.8,2.3-8.8c1.5-3,3.6-5.3,6.3-6.9c2.7-1.6,5.5-2.4,8.7-2.4C575.6,30.1,579.7,31.7,583.2,35z"/>
		<path class="st1" d="M629.6,56.5c0,4.4-1.6,8.2-4.8,11.3c-3.2,3.1-7,4.7-11.5,4.7c-4.5,0-8.4-1.6-11.5-4.7
			c-3.2-3.1-4.7-6.9-4.7-11.3c0-4.4,1.6-8.2,4.7-11.4c3.2-3.1,7-4.7,11.5-4.7c4.5,0,8.3,1.6,11.5,4.7
			C628,48.3,629.6,52.1,629.6,56.5z M626.6,56.5c0-3.6-1.3-6.7-3.9-9.3c-2.6-2.6-5.7-3.8-9.4-3.8c-3.7,0-6.8,1.3-9.4,3.9
			s-3.9,5.7-3.9,9.3c0,3.6,1.3,6.7,3.9,9.3c2.6,2.6,5.7,3.9,9.4,3.9c3.7,0,6.8-1.3,9.4-3.9C625.3,63.3,626.6,60.2,626.6,56.5z"/>
		<path class="st1" d="M670.5,28v40.5h3.9c0.7,0,1.2,0.1,1.5,0.4c0.3,0.3,0.4,0.6,0.4,1.1c0,0.4-0.1,0.8-0.4,1
			c-0.3,0.3-0.8,0.4-1.5,0.4h-6.8v-5.8c-3.4,4.6-7.6,6.9-12.8,6.9c-2.6,0-5.1-0.7-7.6-2.1c-2.4-1.4-4.3-3.4-5.7-6
			c-1.4-2.6-2.1-5.2-2.1-8c0-2.8,0.7-5.4,2.1-8c1.4-2.6,3.3-4.6,5.7-6c2.4-1.4,4.9-2.1,7.6-2.1c5.1,0,9.3,2.3,12.8,6.9V31h-3.9
			c-0.7,0-1.2-0.1-1.5-0.4c-0.3-0.3-0.4-0.6-0.4-1.1c0-0.4,0.1-0.8,0.4-1c0.3-0.3,0.8-0.4,1.5-0.4H670.5z M667.5,56.5
			c0-3.7-1.2-6.8-3.7-9.3c-2.5-2.5-5.5-3.8-8.9-3.8c-3.5,0-6.4,1.3-8.9,3.8c-2.5,2.5-3.7,5.6-3.7,9.3c0,3.7,1.2,6.8,3.7,9.3
			c2.5,2.5,5.5,3.8,8.9,3.8c3.4,0,6.4-1.3,8.9-3.8C666.3,63.3,667.5,60.2,667.5,56.5z"/>
		<path class="st1" d="M714.9,57.2h-29.6c0.5,3.8,2.1,6.8,4.7,9.1c2.6,2.3,5.9,3.4,9.8,3.4c2.2,0,4.4-0.4,6.8-1.1
			c2.4-0.7,4.3-1.7,5.8-2.8c0.4-0.3,0.8-0.5,1.1-0.5c0.4,0,0.7,0.1,1,0.4c0.3,0.3,0.4,0.6,0.4,1c0,0.4-0.2,0.8-0.6,1.1
			c-1.1,1.2-3.1,2.2-5.9,3.2c-2.8,1-5.7,1.5-8.7,1.5c-5,0-9.1-1.6-12.5-4.9c-3.3-3.3-5-7.2-5-11.8c0-4.2,1.6-7.8,4.7-10.9
			c3.1-3,7-4.5,11.6-4.5c4.7,0,8.7,1.5,11.7,4.7S714.9,52.2,714.9,57.2z M711.9,54.2c-0.6-3.2-2.1-5.8-4.5-7.8c-2.5-2-5.4-3-8.8-3
			c-3.4,0-6.3,1-8.7,3c-2.4,2-4,4.6-4.6,7.8H711.9z"/>
		<path class="st1" d="M729,51.3c0-2.6,0.3-5.5,1-8.4c0.7-3,2-6.4,4-10.3c2-3.9,3.4-6.2,4.3-7.1c0.3-0.3,0.6-0.4,0.9-0.4
			c0.4,0,0.8,0.1,1.1,0.4c0.3,0.3,0.4,0.6,0.4,1c0,0.2-0.1,0.5-0.2,0.8c-2.5,4.7-4.3,8.9-5.4,12.7c-1.1,3.8-1.6,7.6-1.6,11.3
			c0,3.8,0.5,7.6,1.6,11.4c1.1,3.8,2.9,8,5.4,12.6c0.2,0.3,0.2,0.5,0.2,0.8c0,0.4-0.1,0.7-0.4,1c-0.3,0.3-0.6,0.4-1.1,0.4
			c-0.3,0-0.6-0.1-0.9-0.4c-0.9-0.8-2.2-3.1-4.2-6.9c-1.9-3.8-3.3-7.2-4-10.1C729.4,57.2,729,54.3,729,51.3z"/>
		<path class="st1" d="M773.1,51.3c0,2.7-0.3,5.5-1,8.4c-0.7,3-2,6.4-4,10.3c-2,3.9-3.4,6.3-4.3,7c-0.3,0.3-0.6,0.4-0.9,0.4
			c-0.4,0-0.8-0.1-1.1-0.4c-0.3-0.3-0.4-0.6-0.4-1c0-0.2,0.1-0.5,0.2-0.8c2.5-4.6,4.3-8.8,5.4-12.6c1.1-3.8,1.6-7.6,1.6-11.3
			c0-3.8-0.5-7.6-1.6-11.4c-1.1-3.8-2.9-8-5.4-12.7c-0.2-0.3-0.2-0.5-0.2-0.8c0-0.4,0.1-0.7,0.4-1c0.3-0.3,0.6-0.4,1.1-0.4
			c0.3,0,0.6,0.1,0.9,0.4c0.9,0.8,2.2,3.1,4.2,6.9c1.9,3.8,3.3,7.2,4,10.1C772.7,45.4,773.1,48.4,773.1,51.3z"/>
	</g>
	<g>
		<g>
			<path class="st2" d="M129.6,41.5v4.4c2-2.1,3.9-3.5,5.5-4.3c1.6-0.8,3.5-1.2,5.5-1.2c2.2,0,4.2,0.5,6.1,1.4
				c1.3,0.7,2.5,1.8,3.5,3.4c1,1.6,1.6,3.2,1.6,4.9v18.3h2.5c0.7,0,1.2,0.1,1.5,0.4c0.3,0.3,0.4,0.6,0.4,1.1c0,0.4-0.2,0.8-0.4,1
				c-0.3,0.3-0.8,0.4-1.5,0.4h-7.8c-0.7,0-1.2-0.1-1.5-0.4c-0.3-0.3-0.4-0.6-0.4-1c0-0.4,0.1-0.8,0.4-1.1c0.3-0.3,0.8-0.4,1.5-0.4
				h2.4V50.7c0-2.1-0.7-3.8-2.2-5.2c-1.5-1.4-3.5-2.1-6-2.1c-1.9,0-3.6,0.4-5,1.2c-1.4,0.8-3.4,2.7-6,5.8v18.2h3.3
				c0.7,0,1.2,0.1,1.5,0.4c0.3,0.3,0.4,0.6,0.4,1.1c0,0.4-0.1,0.8-0.4,1c-0.3,0.3-0.8,0.4-1.5,0.4h-9.5c-0.7,0-1.2-0.1-1.5-0.4
				c-0.3-0.3-0.4-0.6-0.4-1c0-0.4,0.1-0.8,0.4-1.1c0.3-0.3,0.8-0.4,1.5-0.4h3.3V44.4h-2.5c-0.7,0-1.2-0.1-1.5-0.4
				c-0.3-0.3-0.4-0.6-0.4-1.1c0-0.4,0.1-0.8,0.4-1c0.3-0.3,0.8-0.4,1.5-0.4H129.6z"/>
			<path class="st2" d="M197.9,57.2h-29.6c0.5,3.8,2.1,6.8,4.7,9.1c2.6,2.3,5.9,3.4,9.8,3.4c2.2,0,4.4-0.4,6.8-1.1
				c2.4-0.7,4.3-1.7,5.8-2.8c0.4-0.3,0.8-0.5,1.1-0.5c0.4,0,0.7,0.1,1,0.4c0.3,0.3,0.4,0.6,0.4,1c0,0.4-0.2,0.8-0.6,1.1
				c-1.1,1.2-3.1,2.2-5.9,3.2c-2.8,1-5.7,1.5-8.7,1.5c-5,0-9.1-1.6-12.5-4.9c-3.3-3.3-5-7.2-5-11.8c0-4.2,1.6-7.8,4.7-10.9
				c3.1-3,7-4.5,11.6-4.5c4.7,0,8.7,1.5,11.7,4.7C196.5,48.2,198,52.2,197.9,57.2z M195,54.2c-0.6-3.2-2.1-5.8-4.5-7.8
				c-2.5-2-5.4-3-8.8-3c-3.4,0-6.3,1-8.7,3c-2.4,2-4,4.6-4.6,7.8H195z"/>
			<path class="st2" d="M217.3,41.5H233c0.7,0,1.2,0.1,1.5,0.4c0.3,0.3,0.4,0.6,0.4,1.1c0,0.4-0.1,0.8-0.4,1
				c-0.3,0.3-0.8,0.4-1.5,0.4h-15.8v19.3c0,1.7,0.7,3.1,2,4.2c1.3,1.1,3.3,1.7,5.9,1.7c2,0,4.1-0.3,6.4-0.9c2.3-0.6,4.1-1.2,5.3-2
				c0.5-0.3,0.8-0.4,1.1-0.4c0.4,0,0.7,0.1,1,0.4c0.3,0.3,0.4,0.6,0.4,1c0,0.3-0.2,0.7-0.5,1c-0.7,0.8-2.5,1.6-5.4,2.5
				c-2.8,0.9-5.6,1.3-8.2,1.3c-3.4,0-6.1-0.8-8.1-2.4c-2-1.6-3-3.7-3-6.4V44.4H209c-0.7,0-1.2-0.1-1.5-0.4c-0.3-0.3-0.5-0.6-0.5-1.1
				c0-0.4,0.1-0.8,0.5-1c0.3-0.3,0.8-0.4,1.5-0.4h5.4v-8.6c0-0.7,0.1-1.2,0.4-1.5c0.3-0.3,0.6-0.4,1-0.4c0.4,0,0.8,0.1,1.1,0.4
				c0.3,0.3,0.4,0.8,0.4,1.5V41.5z"/>
			<path class="st2" d="M276.3,71.4l-3.6,0l-6.4-18.7l-6.4,18.7l-3.6,0l-6-27h-1.4c-0.7,0-1.2-0.1-1.5-0.4c-0.3-0.3-0.4-0.6-0.4-1.1
				c0-0.4,0.1-0.8,0.4-1c0.3-0.3,0.8-0.4,1.5-0.4h8c0.7,0,1.2,0.1,1.5,0.4c0.3,0.3,0.4,0.6,0.4,1.1c0,0.4-0.2,0.8-0.4,1
				c-0.3,0.3-0.8,0.4-1.5,0.4h-3.7l5.2,23l6.2-18.4h3.5l6.4,18.4l4.9-23h-3.7c-0.7,0-1.2-0.1-1.5-0.4c-0.3-0.3-0.5-0.6-0.5-1.1
				c0-0.4,0.1-0.8,0.4-1c0.3-0.3,0.8-0.4,1.5-0.4h8c0.7,0,1.2,0.1,1.5,0.4c0.3,0.3,0.5,0.6,0.5,1.1c0,0.4-0.2,0.8-0.5,1
				c-0.3,0.3-0.8,0.4-1.5,0.4h-1.4L276.3,71.4z"/>
			<path class="st2" d="M325.8,56.5c0,4.4-1.6,8.2-4.8,11.3c-3.2,3.1-7,4.7-11.5,4.7c-4.5,0-8.4-1.6-11.5-4.7
				c-3.2-3.1-4.7-6.9-4.7-11.3c0-4.4,1.6-8.2,4.7-11.4c3.2-3.1,7-4.7,11.5-4.7c4.5,0,8.3,1.6,11.5,4.7
				C324.2,48.3,325.8,52.1,325.8,56.5z M322.8,56.5c0-3.6-1.3-6.7-3.9-9.3c-2.6-2.6-5.7-3.8-9.4-3.8c-3.7,0-6.8,1.3-9.4,3.9
				c-2.6,2.6-3.9,5.7-3.9,9.3c0,3.6,1.3,6.7,3.9,9.3c2.6,2.6,5.7,3.9,9.4,3.9c3.7,0,6.8-1.3,9.4-3.9
				C321.5,63.3,322.8,60.2,322.8,56.5z"/>
			<path class="st2" d="M346.8,41.5v7.3c3.8-3.4,6.6-5.6,8.5-6.6c1.9-1,3.6-1.5,5.2-1.5c1.7,0,3.3,0.6,4.8,1.7s2.2,2,2.2,2.6
				c0,0.4-0.1,0.8-0.4,1.1c-0.3,0.3-0.7,0.4-1.1,0.4c-0.2,0-0.4,0-0.6-0.1c-0.2-0.1-0.5-0.3-0.9-0.8c-0.8-0.8-1.5-1.4-2.1-1.7
				c-0.6-0.3-1.2-0.4-1.8-0.4c-1.3,0-2.8,0.5-4.6,1.5c-1.8,1-4.9,3.5-9.3,7.4v15.9h12.9c0.7,0,1.2,0.1,1.5,0.4
				c0.3,0.3,0.4,0.6,0.4,1.1c0,0.4-0.1,0.8-0.4,1c-0.3,0.3-0.8,0.4-1.5,0.4h-22.8c-0.7,0-1.2-0.1-1.5-0.4c-0.3-0.3-0.4-0.6-0.4-1
				c0-0.4,0.1-0.7,0.4-1c0.3-0.3,0.8-0.4,1.5-0.4h7V44.4h-5.4c-0.7,0-1.2-0.1-1.5-0.4c-0.3-0.3-0.5-0.6-0.5-1.1c0-0.4,0.1-0.8,0.4-1
				c0.3-0.3,0.8-0.4,1.5-0.4H346.8z"/>
			<path class="st2" d="M384.8,58.5v12.9H378c-0.7,0-1.2-0.1-1.5-0.4c-0.3-0.3-0.4-0.6-0.4-1c0-0.4,0.1-0.8,0.4-1.1
				c0.3-0.3,0.8-0.4,1.5-0.4h3.9V31H378c-0.7,0-1.2-0.1-1.5-0.4c-0.3-0.3-0.4-0.6-0.4-1.1c0-0.4,0.1-0.8,0.4-1
				c0.3-0.3,0.8-0.4,1.5-0.4h6.8v26.8l12.3-10.4h-1.5c-0.7,0-1.2-0.1-1.5-0.4c-0.3-0.3-0.4-0.6-0.4-1c0-0.4,0.1-0.8,0.4-1.1
				c0.3-0.3,0.8-0.4,1.5-0.4h9.3c0.7,0,1.2,0.1,1.5,0.4c0.3,0.3,0.4,0.6,0.4,1.1c0,0.4-0.1,0.8-0.4,1c-0.3,0.3-0.8,0.4-1.5,0.4h-3.4
				l-11.3,9.5l14.4,14.6h3.4c0.7,0,1.2,0.1,1.5,0.4c0.3,0.3,0.4,0.6,0.4,1.1c0,0.4-0.1,0.8-0.4,1c-0.3,0.3-0.8,0.4-1.5,0.4h-9.4
				c-0.7,0-1.2-0.1-1.5-0.4c-0.3-0.3-0.4-0.6-0.4-1c0-0.4,0.1-0.8,0.4-1.1c0.3-0.3,0.8-0.4,1.5-0.4h2l-12.5-12.8L384.8,58.5z"/>
		</g>
		<g>
			<g>
				<path class="st3" d="M67.2,77.5c-0.6,0-1.1-0.3-1.4-0.8c-0.5-0.8-0.2-1.8,0.6-2.3l30.3-17.9L66.3,38.7c-0.8-0.5-1.1-1.5-0.6-2.3
					c0.5-0.8,1.5-1.1,2.3-0.6l35.2,20.7L68,77.3C67.8,77.4,67.5,77.5,67.2,77.5z"/>
			</g>
			<g>
				<path class="st3" d="M34.4,77.5c-0.6,0-1.1-0.3-1.4-0.8c-0.5-0.8-0.2-1.8,0.6-2.3l30.3-17.9L33.6,38.7c-0.8-0.5-1.1-1.5-0.6-2.3
					c0.5-0.8,1.5-1.1,2.3-0.6l35.2,20.7L35.3,77.3C35,77.4,34.7,77.5,34.4,77.5z"/>
			</g>
			<g>
				<path class="st3" d="M1.7,77.5c-0.6,0-1.1-0.3-1.4-0.8c-0.5-0.8-0.2-1.8,0.6-2.3l30.3-17.9L0.8,38.7c-0.8-0.5-1.1-1.5-0.6-2.3
					c0.5-0.8,1.5-1.1,2.3-0.6l35.2,20.7L2.5,77.3C2.3,77.4,2,77.5,1.7,77.5z"/>
			</g>
		</g>
	</g>
</g>
</svg>
